<mxfile host="app.diagrams.net" agent="Mozilla/5.0 (X11; Linux x86_64; rv:129.0) Gecko/20100101 Firefox/129.0" version="24.7.17" pages="10">
  <diagram name="Exquis" id="03dYKhVoTM7DIGuZSEkC">
    <mxGraphModel dx="754" dy="384" grid="1" gridSize="10" guides="1" tooltips="1" connect="1" arrows="1" fold="1" page="1" pageScale="1" pageWidth="827" pageHeight="1169" math="0" shadow="0">
      <root>
        <mxCell id="0" />
        <mxCell id="1" parent="0" />
        <mxCell id="Hq1kInDq9KoJ7vGKWbL7-11" value="" style="group" vertex="1" connectable="0" parent="1">
          <mxGeometry x="160" y="120" width="190" height="180" as="geometry" />
        </mxCell>
        <mxCell id="Hq1kInDq9KoJ7vGKWbL7-1" value="" style="shape=hexagon;perimeter=hexagonPerimeter2;whiteSpace=wrap;html=1;fixedSize=1;direction=south;size=20.909090909090963;" vertex="1" parent="Hq1kInDq9KoJ7vGKWbL7-11">
          <mxGeometry x="45" y="109.09090909090908" width="45" height="65.45454545454545" as="geometry" />
        </mxCell>
        <mxCell id="Hq1kInDq9KoJ7vGKWbL7-2" value="" style="shape=hexagon;perimeter=hexagonPerimeter2;whiteSpace=wrap;html=1;fixedSize=1;direction=south;size=20.90909090909099;" vertex="1" parent="Hq1kInDq9KoJ7vGKWbL7-11">
          <mxGeometry x="101.25" y="109.09090909090908" width="45" height="65.45454545454545" as="geometry" />
        </mxCell>
        <mxCell id="Hq1kInDq9KoJ7vGKWbL7-4" value="" style="shape=hexagon;perimeter=hexagonPerimeter2;whiteSpace=wrap;html=1;fixedSize=1;direction=south;size=20;" vertex="1" parent="Hq1kInDq9KoJ7vGKWbL7-11">
          <mxGeometry x="45" width="45" height="65.45454545454545" as="geometry" />
        </mxCell>
        <mxCell id="Hq1kInDq9KoJ7vGKWbL7-5" value="" style="curved=1;endArrow=classic;html=1;rounded=0;exitX=1;exitY=0.25;exitDx=0;exitDy=0;entryX=1;entryY=0.75;entryDx=0;entryDy=0;" edge="1" parent="Hq1kInDq9KoJ7vGKWbL7-11" source="Hq1kInDq9KoJ7vGKWbL7-1" target="Hq1kInDq9KoJ7vGKWbL7-2">
          <mxGeometry width="50" height="50" relative="1" as="geometry">
            <mxPoint x="95.625" y="223.6363636363636" as="sourcePoint" />
            <mxPoint x="123.75" y="196.36363636363635" as="targetPoint" />
            <Array as="points">
              <mxPoint x="78.75" y="174.54545454545453" />
              <mxPoint x="101.25" y="180" />
            </Array>
          </mxGeometry>
        </mxCell>
        <mxCell id="Hq1kInDq9KoJ7vGKWbL7-7" value="" style="curved=1;endArrow=classic;html=1;rounded=0;exitX=0.5;exitY=0;exitDx=0;exitDy=0;entryX=0.5;entryY=0;entryDx=0;entryDy=0;" edge="1" parent="Hq1kInDq9KoJ7vGKWbL7-11" source="Hq1kInDq9KoJ7vGKWbL7-2">
          <mxGeometry width="50" height="50" relative="1" as="geometry">
            <mxPoint x="168.75" y="141.81818181818178" as="sourcePoint" />
            <mxPoint x="118.125" y="87.27272727272725" as="targetPoint" />
            <Array as="points">
              <mxPoint x="163.125" y="141.81818181818178" />
              <mxPoint x="168.75" y="114.54545454545456" />
              <mxPoint x="140.625" y="87.27272727272727" />
            </Array>
          </mxGeometry>
        </mxCell>
        <mxCell id="Hq1kInDq9KoJ7vGKWbL7-8" value="" style="curved=1;endArrow=classic;html=1;rounded=0;exitX=0.375;exitY=1;exitDx=0;exitDy=0;entryX=0.5;entryY=1;entryDx=0;entryDy=0;" edge="1" parent="Hq1kInDq9KoJ7vGKWbL7-11" source="Hq1kInDq9KoJ7vGKWbL7-1">
          <mxGeometry width="50" height="50" relative="1" as="geometry">
            <mxPoint x="5.625" y="120" as="sourcePoint" />
            <mxPoint x="73.125" y="87.27272727272725" as="targetPoint" />
            <Array as="points">
              <mxPoint x="28.125" y="125.45454545454544" />
              <mxPoint x="28.125" y="87.27272727272727" />
              <mxPoint x="56.25" y="87.27272727272727" />
            </Array>
          </mxGeometry>
        </mxCell>
        <mxCell id="Hq1kInDq9KoJ7vGKWbL7-9" value="" style="curved=1;endArrow=classic;html=1;rounded=0;exitX=0.625;exitY=1;exitDx=0;exitDy=0;entryX=0.5;entryY=1;entryDx=0;entryDy=0;" edge="1" parent="Hq1kInDq9KoJ7vGKWbL7-11" source="Hq1kInDq9KoJ7vGKWbL7-1" target="Hq1kInDq9KoJ7vGKWbL7-4">
          <mxGeometry width="50" height="50" relative="1" as="geometry">
            <mxPoint x="-28.125" y="125.45454545454544" as="sourcePoint" />
            <mxPoint y="98.18181818181817" as="targetPoint" />
            <Array as="points">
              <mxPoint y="114.54545454545456" />
              <mxPoint x="5.625" y="38.18181818181818" />
            </Array>
          </mxGeometry>
        </mxCell>
        <mxCell id="O4vXQzl2haMAkv5I3pR4-4" value="" style="shape=hexagon;perimeter=hexagonPerimeter2;whiteSpace=wrap;html=1;fixedSize=1;direction=south;size=20;" vertex="1" parent="Hq1kInDq9KoJ7vGKWbL7-11">
          <mxGeometry x="72.5" y="54" width="45" height="65.45454545454545" as="geometry" />
        </mxCell>
        <mxCell id="O4vXQzl2haMAkv5I3pR4-1" value="d+1" style="text;html=1;align=center;verticalAlign=middle;whiteSpace=wrap;rounded=0;" vertex="1" parent="Hq1kInDq9KoJ7vGKWbL7-11">
          <mxGeometry x="12.5" y="60" width="60" height="30" as="geometry" />
        </mxCell>
        <mxCell id="O4vXQzl2haMAkv5I3pR4-2" value="d" style="text;html=1;align=center;verticalAlign=middle;whiteSpace=wrap;rounded=0;" vertex="1" parent="Hq1kInDq9KoJ7vGKWbL7-11">
          <mxGeometry x="130" y="79.09" width="60" height="30" as="geometry" />
        </mxCell>
        <mxCell id="Eu-lmuNuimqCG2wgEiJr-1" value="2d+1" style="text;html=1;align=center;verticalAlign=middle;whiteSpace=wrap;rounded=0;" vertex="1" parent="Hq1kInDq9KoJ7vGKWbL7-11">
          <mxGeometry x="-15" y="10" width="60" height="30" as="geometry" />
        </mxCell>
        <mxCell id="O4vXQzl2haMAkv5I3pR4-3" value="1" style="text;html=1;align=center;verticalAlign=middle;whiteSpace=wrap;rounded=0;" vertex="1" parent="1">
          <mxGeometry x="225" y="300" width="60" height="30" as="geometry" />
        </mxCell>
      </root>
    </mxGraphModel>
  </diagram>
  <diagram id="KCsU4NwVj2RT8qoUrRnB" name="HarmonicTable">
    <mxGraphModel dx="774" dy="384" grid="1" gridSize="10" guides="1" tooltips="1" connect="1" arrows="1" fold="1" page="1" pageScale="1" pageWidth="827" pageHeight="1169" math="0" shadow="0">
      <root>
        <mxCell id="0" />
        <mxCell id="1" parent="0" />
        <mxCell id="LueXefmQcw9ORAYid4Ko-1" value="" style="group" vertex="1" connectable="0" parent="1">
          <mxGeometry x="170" y="120" width="190" height="180" as="geometry" />
        </mxCell>
        <mxCell id="LueXefmQcw9ORAYid4Ko-2" value="0" style="shape=hexagon;perimeter=hexagonPerimeter2;whiteSpace=wrap;html=1;fixedSize=1;direction=south;size=20.909090909090963;" vertex="1" parent="LueXefmQcw9ORAYid4Ko-1">
          <mxGeometry x="45" y="109.09090909090908" width="45" height="65.45454545454545" as="geometry" />
        </mxCell>
        <mxCell id="LueXefmQcw9ORAYid4Ko-3" value="e.g. 7" style="shape=hexagon;perimeter=hexagonPerimeter2;whiteSpace=wrap;html=1;fixedSize=1;direction=south;size=20.90909090909099;" vertex="1" parent="LueXefmQcw9ORAYid4Ko-1">
          <mxGeometry x="101.25" y="109.09090909090908" width="45" height="65.45454545454545" as="geometry" />
        </mxCell>
        <mxCell id="LueXefmQcw9ORAYid4Ko-4" value="1" style="shape=hexagon;perimeter=hexagonPerimeter2;whiteSpace=wrap;html=1;fixedSize=1;direction=south;size=20;" vertex="1" parent="LueXefmQcw9ORAYid4Ko-1">
          <mxGeometry x="45" width="45" height="65.45454545454545" as="geometry" />
        </mxCell>
        <mxCell id="LueXefmQcw9ORAYid4Ko-5" value="" style="curved=1;endArrow=classic;html=1;rounded=0;exitX=1;exitY=0.25;exitDx=0;exitDy=0;entryX=1;entryY=0.75;entryDx=0;entryDy=0;" edge="1" parent="LueXefmQcw9ORAYid4Ko-1" source="LueXefmQcw9ORAYid4Ko-2" target="LueXefmQcw9ORAYid4Ko-3">
          <mxGeometry width="50" height="50" relative="1" as="geometry">
            <mxPoint x="95.625" y="223.6363636363636" as="sourcePoint" />
            <mxPoint x="123.75" y="196.36363636363635" as="targetPoint" />
            <Array as="points">
              <mxPoint x="78.75" y="174.54545454545453" />
              <mxPoint x="101.25" y="180" />
            </Array>
          </mxGeometry>
        </mxCell>
        <mxCell id="LueXefmQcw9ORAYid4Ko-6" value="" style="curved=1;endArrow=none;html=1;rounded=0;exitX=0.5;exitY=0;exitDx=0;exitDy=0;entryX=0.5;entryY=0;entryDx=0;entryDy=0;startArrow=classic;startFill=1;endFill=0;" edge="1" parent="LueXefmQcw9ORAYid4Ko-1" source="LueXefmQcw9ORAYid4Ko-3">
          <mxGeometry width="50" height="50" relative="1" as="geometry">
            <mxPoint x="168.75" y="141.81818181818178" as="sourcePoint" />
            <mxPoint x="118.125" y="87.27272727272725" as="targetPoint" />
            <Array as="points">
              <mxPoint x="163.125" y="141.81818181818178" />
              <mxPoint x="168.75" y="114.54545454545456" />
              <mxPoint x="140.625" y="87.27272727272727" />
            </Array>
          </mxGeometry>
        </mxCell>
        <mxCell id="LueXefmQcw9ORAYid4Ko-7" value="" style="curved=1;endArrow=classic;html=1;rounded=0;exitX=0.375;exitY=1;exitDx=0;exitDy=0;entryX=0.5;entryY=1;entryDx=0;entryDy=0;" edge="1" parent="LueXefmQcw9ORAYid4Ko-1" source="LueXefmQcw9ORAYid4Ko-2">
          <mxGeometry width="50" height="50" relative="1" as="geometry">
            <mxPoint x="5.625" y="120" as="sourcePoint" />
            <mxPoint x="73.125" y="87.27272727272725" as="targetPoint" />
            <Array as="points">
              <mxPoint x="28.125" y="125.45454545454544" />
              <mxPoint x="28.125" y="87.27272727272727" />
              <mxPoint x="56.25" y="87.27272727272727" />
            </Array>
          </mxGeometry>
        </mxCell>
        <mxCell id="LueXefmQcw9ORAYid4Ko-8" value="" style="curved=1;endArrow=classic;html=1;rounded=0;exitX=0.625;exitY=1;exitDx=0;exitDy=0;entryX=0.5;entryY=1;entryDx=0;entryDy=0;" edge="1" parent="LueXefmQcw9ORAYid4Ko-1" source="LueXefmQcw9ORAYid4Ko-2" target="LueXefmQcw9ORAYid4Ko-4">
          <mxGeometry width="50" height="50" relative="1" as="geometry">
            <mxPoint x="-28.125" y="125.45454545454544" as="sourcePoint" />
            <mxPoint y="98.18181818181817" as="targetPoint" />
            <Array as="points">
              <mxPoint y="114.54545454545456" />
              <mxPoint x="5.625" y="38.18181818181818" />
            </Array>
          </mxGeometry>
        </mxCell>
        <mxCell id="LueXefmQcw9ORAYid4Ko-9" value="e.g. 4" style="shape=hexagon;perimeter=hexagonPerimeter2;whiteSpace=wrap;html=1;fixedSize=1;direction=south;size=20;" vertex="1" parent="LueXefmQcw9ORAYid4Ko-1">
          <mxGeometry x="72.5" y="54" width="45" height="65.45454545454545" as="geometry" />
        </mxCell>
        <mxCell id="LueXefmQcw9ORAYid4Ko-10" value="d+1" style="text;html=1;align=center;verticalAlign=middle;whiteSpace=wrap;rounded=0;" vertex="1" parent="LueXefmQcw9ORAYid4Ko-1">
          <mxGeometry x="12.5" y="60" width="60" height="30" as="geometry" />
        </mxCell>
        <mxCell id="LueXefmQcw9ORAYid4Ko-11" value="d" style="text;html=1;align=center;verticalAlign=middle;whiteSpace=wrap;rounded=0;" vertex="1" parent="LueXefmQcw9ORAYid4Ko-1">
          <mxGeometry x="130" y="79.09" width="60" height="30" as="geometry" />
        </mxCell>
        <mxCell id="LueXefmQcw9ORAYid4Ko-12" value="1" style="text;html=1;align=center;verticalAlign=middle;whiteSpace=wrap;rounded=0;" vertex="1" parent="LueXefmQcw9ORAYid4Ko-1">
          <mxGeometry x="-15" y="10" width="60" height="30" as="geometry" />
        </mxCell>
        <mxCell id="LueXefmQcw9ORAYid4Ko-13" value="2d+1" style="text;html=1;align=center;verticalAlign=middle;whiteSpace=wrap;rounded=0;" vertex="1" parent="1">
          <mxGeometry x="236" y="300" width="60" height="30" as="geometry" />
        </mxCell>
      </root>
    </mxGraphModel>
  </diagram>
  <diagram id="WeIOOWYWz3BrN467DIyS" name="WickiHayden">
    <mxGraphModel dx="774" dy="384" grid="1" gridSize="10" guides="1" tooltips="1" connect="1" arrows="1" fold="1" page="1" pageScale="1" pageWidth="827" pageHeight="1169" math="0" shadow="0">
      <root>
        <mxCell id="0" />
        <mxCell id="1" parent="0" />
        <mxCell id="8Vi3Hh39wJFYHrPVvzAP-1" value="" style="group" vertex="1" connectable="0" parent="1">
          <mxGeometry x="190" y="160" width="190" height="180" as="geometry" />
        </mxCell>
        <mxCell id="8Vi3Hh39wJFYHrPVvzAP-2" value="0" style="shape=hexagon;perimeter=hexagonPerimeter2;whiteSpace=wrap;html=1;fixedSize=1;direction=south;size=20.909090909090963;" vertex="1" parent="8Vi3Hh39wJFYHrPVvzAP-1">
          <mxGeometry x="45" y="109.09090909090908" width="45" height="65.45454545454545" as="geometry" />
        </mxCell>
        <mxCell id="8Vi3Hh39wJFYHrPVvzAP-3" value="e.g. 2" style="shape=hexagon;perimeter=hexagonPerimeter2;whiteSpace=wrap;html=1;fixedSize=1;direction=south;size=20.90909090909099;" vertex="1" parent="8Vi3Hh39wJFYHrPVvzAP-1">
          <mxGeometry x="101.25" y="109.09090909090908" width="45" height="65.45454545454545" as="geometry" />
        </mxCell>
        <mxCell id="8Vi3Hh39wJFYHrPVvzAP-4" value="e.g. 12" style="shape=hexagon;perimeter=hexagonPerimeter2;whiteSpace=wrap;html=1;fixedSize=1;direction=south;size=20;" vertex="1" parent="8Vi3Hh39wJFYHrPVvzAP-1">
          <mxGeometry x="45" width="45" height="65.45454545454545" as="geometry" />
        </mxCell>
        <mxCell id="8Vi3Hh39wJFYHrPVvzAP-5" value="" style="curved=1;endArrow=classic;html=1;rounded=0;exitX=1;exitY=0.25;exitDx=0;exitDy=0;entryX=1;entryY=0.75;entryDx=0;entryDy=0;" edge="1" parent="8Vi3Hh39wJFYHrPVvzAP-1" source="8Vi3Hh39wJFYHrPVvzAP-2" target="8Vi3Hh39wJFYHrPVvzAP-3">
          <mxGeometry width="50" height="50" relative="1" as="geometry">
            <mxPoint x="95.625" y="223.6363636363636" as="sourcePoint" />
            <mxPoint x="123.75" y="196.36363636363635" as="targetPoint" />
            <Array as="points">
              <mxPoint x="78.75" y="174.54545454545453" />
              <mxPoint x="101.25" y="180" />
            </Array>
          </mxGeometry>
        </mxCell>
        <mxCell id="8Vi3Hh39wJFYHrPVvzAP-6" value="" style="curved=1;endArrow=classic;html=1;rounded=0;exitX=0.5;exitY=0;exitDx=0;exitDy=0;entryX=0.5;entryY=0;entryDx=0;entryDy=0;" edge="1" parent="8Vi3Hh39wJFYHrPVvzAP-1" source="8Vi3Hh39wJFYHrPVvzAP-3">
          <mxGeometry width="50" height="50" relative="1" as="geometry">
            <mxPoint x="168.75" y="141.81818181818178" as="sourcePoint" />
            <mxPoint x="118.125" y="87.27272727272725" as="targetPoint" />
            <Array as="points">
              <mxPoint x="163.125" y="141.81818181818178" />
              <mxPoint x="168.75" y="114.54545454545456" />
              <mxPoint x="140.625" y="87.27272727272727" />
            </Array>
          </mxGeometry>
        </mxCell>
        <mxCell id="8Vi3Hh39wJFYHrPVvzAP-7" value="" style="curved=1;endArrow=classic;html=1;rounded=0;exitX=0.375;exitY=1;exitDx=0;exitDy=0;entryX=0.5;entryY=1;entryDx=0;entryDy=0;" edge="1" parent="8Vi3Hh39wJFYHrPVvzAP-1" source="8Vi3Hh39wJFYHrPVvzAP-2">
          <mxGeometry width="50" height="50" relative="1" as="geometry">
            <mxPoint x="5.625" y="120" as="sourcePoint" />
            <mxPoint x="73.125" y="87.27272727272725" as="targetPoint" />
            <Array as="points">
              <mxPoint x="28.125" y="125.45454545454544" />
              <mxPoint x="28.125" y="87.27272727272727" />
              <mxPoint x="56.25" y="87.27272727272727" />
            </Array>
          </mxGeometry>
        </mxCell>
        <mxCell id="8Vi3Hh39wJFYHrPVvzAP-8" value="" style="curved=1;endArrow=classic;html=1;rounded=0;exitX=0.625;exitY=1;exitDx=0;exitDy=0;entryX=0.5;entryY=1;entryDx=0;entryDy=0;" edge="1" parent="8Vi3Hh39wJFYHrPVvzAP-1" source="8Vi3Hh39wJFYHrPVvzAP-2" target="8Vi3Hh39wJFYHrPVvzAP-4">
          <mxGeometry width="50" height="50" relative="1" as="geometry">
            <mxPoint x="-28.125" y="125.45454545454544" as="sourcePoint" />
            <mxPoint y="98.18181818181817" as="targetPoint" />
            <Array as="points">
              <mxPoint y="114.54545454545456" />
              <mxPoint x="5.625" y="38.18181818181818" />
            </Array>
          </mxGeometry>
        </mxCell>
        <mxCell id="8Vi3Hh39wJFYHrPVvzAP-9" value="e.g. 7" style="shape=hexagon;perimeter=hexagonPerimeter2;whiteSpace=wrap;html=1;fixedSize=1;direction=south;size=20;" vertex="1" parent="8Vi3Hh39wJFYHrPVvzAP-1">
          <mxGeometry x="72.5" y="54" width="45" height="65.45454545454545" as="geometry" />
        </mxCell>
        <mxCell id="8Vi3Hh39wJFYHrPVvzAP-10" value="3d-2f&lt;sub&gt;3&lt;/sub&gt;(d)" style="text;html=1;align=center;verticalAlign=middle;whiteSpace=wrap;rounded=0;" vertex="1" parent="8Vi3Hh39wJFYHrPVvzAP-1">
          <mxGeometry x="12.5" y="60" width="60" height="30" as="geometry" />
        </mxCell>
        <mxCell id="8Vi3Hh39wJFYHrPVvzAP-12" value="5d-3f&lt;sub&gt;3&lt;/sub&gt;(d)" style="text;html=1;align=center;verticalAlign=middle;whiteSpace=wrap;rounded=0;" vertex="1" parent="8Vi3Hh39wJFYHrPVvzAP-1">
          <mxGeometry x="-15" y="10" width="60" height="30" as="geometry" />
        </mxCell>
        <mxCell id="8Vi3Hh39wJFYHrPVvzAP-13" value="d-f&lt;sub&gt;3&lt;/sub&gt;(d)" style="text;html=1;align=center;verticalAlign=middle;whiteSpace=wrap;rounded=0;" vertex="1" parent="1">
          <mxGeometry x="255" y="340" width="60" height="30" as="geometry" />
        </mxCell>
        <mxCell id="8Vi3Hh39wJFYHrPVvzAP-11" value="2d-f&lt;sub&gt;3&lt;/sub&gt;(d)" style="text;html=1;align=center;verticalAlign=middle;whiteSpace=wrap;rounded=0;" vertex="1" parent="1">
          <mxGeometry x="340" y="239.09" width="60" height="30" as="geometry" />
        </mxCell>
      </root>
    </mxGraphModel>
  </diagram>
  <diagram id="Z_w9Iao7kajwCzoAG7oD" name="BosanquetWilson">
    <mxGraphModel dx="774" dy="384" grid="1" gridSize="10" guides="1" tooltips="1" connect="1" arrows="1" fold="1" page="1" pageScale="1" pageWidth="827" pageHeight="1169" math="0" shadow="0">
      <root>
        <mxCell id="0" />
        <mxCell id="1" parent="0" />
        <mxCell id="P7J9OyF1p9nJkQtg0Xns-1" value="" style="group" vertex="1" connectable="0" parent="1">
          <mxGeometry x="310" y="140" width="190" height="180" as="geometry" />
        </mxCell>
        <mxCell id="P7J9OyF1p9nJkQtg0Xns-2" value="0" style="shape=hexagon;perimeter=hexagonPerimeter2;whiteSpace=wrap;html=1;fixedSize=1;direction=south;size=20.909090909090963;" vertex="1" parent="P7J9OyF1p9nJkQtg0Xns-1">
          <mxGeometry x="45" y="109.09090909090908" width="45" height="65.45454545454545" as="geometry" />
        </mxCell>
        <mxCell id="P7J9OyF1p9nJkQtg0Xns-3" value="&lt;div&gt;e.g. 2&lt;/div&gt;&lt;div&gt;(or 3)&lt;br&gt;&lt;/div&gt;" style="shape=hexagon;perimeter=hexagonPerimeter2;whiteSpace=wrap;html=1;fixedSize=1;direction=south;size=20.90909090909099;" vertex="1" parent="P7J9OyF1p9nJkQtg0Xns-1">
          <mxGeometry x="101.25" y="109.09090909090908" width="45" height="65.45454545454545" as="geometry" />
        </mxCell>
        <mxCell id="P7J9OyF1p9nJkQtg0Xns-4" value="&lt;div&gt;e.g. 0&lt;/div&gt;(or -1)" style="shape=hexagon;perimeter=hexagonPerimeter2;whiteSpace=wrap;html=1;fixedSize=1;direction=south;size=20;" vertex="1" parent="P7J9OyF1p9nJkQtg0Xns-1">
          <mxGeometry x="45" width="45" height="65.45454545454545" as="geometry" />
        </mxCell>
        <mxCell id="P7J9OyF1p9nJkQtg0Xns-5" value="" style="curved=1;endArrow=classic;html=1;rounded=0;exitX=1;exitY=0.25;exitDx=0;exitDy=0;entryX=1;entryY=0.75;entryDx=0;entryDy=0;" edge="1" parent="P7J9OyF1p9nJkQtg0Xns-1" source="P7J9OyF1p9nJkQtg0Xns-2" target="P7J9OyF1p9nJkQtg0Xns-3">
          <mxGeometry width="50" height="50" relative="1" as="geometry">
            <mxPoint x="95.625" y="223.6363636363636" as="sourcePoint" />
            <mxPoint x="123.75" y="196.36363636363635" as="targetPoint" />
            <Array as="points">
              <mxPoint x="78.75" y="174.54545454545453" />
              <mxPoint x="101.25" y="180" />
            </Array>
          </mxGeometry>
        </mxCell>
        <mxCell id="P7J9OyF1p9nJkQtg0Xns-6" value="" style="curved=1;endArrow=none;html=1;rounded=0;exitX=0.5;exitY=0;exitDx=0;exitDy=0;entryX=0.5;entryY=0;entryDx=0;entryDy=0;startArrow=classic;startFill=1;endFill=0;" edge="1" parent="P7J9OyF1p9nJkQtg0Xns-1" source="P7J9OyF1p9nJkQtg0Xns-3">
          <mxGeometry width="50" height="50" relative="1" as="geometry">
            <mxPoint x="168.75" y="141.81818181818178" as="sourcePoint" />
            <mxPoint x="118.125" y="87.27272727272725" as="targetPoint" />
            <Array as="points">
              <mxPoint x="163.125" y="141.81818181818178" />
              <mxPoint x="168.75" y="114.54545454545456" />
              <mxPoint x="140.625" y="87.27272727272727" />
            </Array>
          </mxGeometry>
        </mxCell>
        <mxCell id="P7J9OyF1p9nJkQtg0Xns-7" value="" style="curved=1;endArrow=classic;html=1;rounded=0;exitX=0.375;exitY=1;exitDx=0;exitDy=0;entryX=0.5;entryY=1;entryDx=0;entryDy=0;" edge="1" parent="P7J9OyF1p9nJkQtg0Xns-1" source="P7J9OyF1p9nJkQtg0Xns-2">
          <mxGeometry width="50" height="50" relative="1" as="geometry">
            <mxPoint x="5.625" y="120" as="sourcePoint" />
            <mxPoint x="73.125" y="87.27272727272725" as="targetPoint" />
            <Array as="points">
              <mxPoint x="28.125" y="125.45454545454544" />
              <mxPoint x="28.125" y="87.27272727272727" />
              <mxPoint x="56.25" y="87.27272727272727" />
            </Array>
          </mxGeometry>
        </mxCell>
        <mxCell id="P7J9OyF1p9nJkQtg0Xns-8" value="" style="curved=1;endArrow=none;html=1;rounded=0;exitX=0.625;exitY=1;exitDx=0;exitDy=0;entryX=0.5;entryY=1;entryDx=0;entryDy=0;startArrow=classic;startFill=1;endFill=0;" edge="1" parent="P7J9OyF1p9nJkQtg0Xns-1" source="P7J9OyF1p9nJkQtg0Xns-2" target="P7J9OyF1p9nJkQtg0Xns-4">
          <mxGeometry width="50" height="50" relative="1" as="geometry">
            <mxPoint x="-28.125" y="125.45454545454544" as="sourcePoint" />
            <mxPoint y="98.18181818181817" as="targetPoint" />
            <Array as="points">
              <mxPoint y="114.54545454545456" />
              <mxPoint x="5.625" y="38.18181818181818" />
            </Array>
          </mxGeometry>
        </mxCell>
        <mxCell id="P7J9OyF1p9nJkQtg0Xns-9" value="e.g. 1" style="shape=hexagon;perimeter=hexagonPerimeter2;whiteSpace=wrap;html=1;fixedSize=1;direction=south;size=20;" vertex="1" parent="P7J9OyF1p9nJkQtg0Xns-1">
          <mxGeometry x="72.5" y="54" width="45" height="65.45454545454545" as="geometry" />
        </mxCell>
        <mxCell id="P7J9OyF1p9nJkQtg0Xns-10" value="f&lt;sub&gt;3&lt;/sub&gt;(d)" style="text;html=1;align=center;verticalAlign=middle;whiteSpace=wrap;rounded=0;" vertex="1" parent="P7J9OyF1p9nJkQtg0Xns-1">
          <mxGeometry x="12.5" y="60" width="60" height="30" as="geometry" />
        </mxCell>
        <mxCell id="P7J9OyF1p9nJkQtg0Xns-11" value="d-2f&lt;sub&gt;3&lt;/sub&gt;(d)" style="text;html=1;align=center;verticalAlign=middle;whiteSpace=wrap;rounded=0;" vertex="1" parent="P7J9OyF1p9nJkQtg0Xns-1">
          <mxGeometry x="146.25" y="79.09" width="60" height="30" as="geometry" />
        </mxCell>
        <mxCell id="P7J9OyF1p9nJkQtg0Xns-12" value="&lt;div&gt;d-3f&lt;sub&gt;3&lt;/sub&gt;(d)&lt;/div&gt;" style="text;html=1;align=center;verticalAlign=middle;whiteSpace=wrap;rounded=0;" vertex="1" parent="P7J9OyF1p9nJkQtg0Xns-1">
          <mxGeometry x="-15" y="10" width="60" height="30" as="geometry" />
        </mxCell>
        <mxCell id="P7J9OyF1p9nJkQtg0Xns-13" value="d-f&lt;sub&gt;3&lt;/sub&gt;(d)" style="text;html=1;align=center;verticalAlign=middle;whiteSpace=wrap;rounded=0;" vertex="1" parent="1">
          <mxGeometry x="376" y="320" width="60" height="30" as="geometry" />
        </mxCell>
      </root>
    </mxGraphModel>
  </diagram>
  <diagram id="tNQmx1MZm0nE6sH81xym" name="Comparison">
    <mxGraphModel dx="774" dy="384" grid="1" gridSize="10" guides="1" tooltips="1" connect="1" arrows="1" fold="1" page="1" pageScale="1" pageWidth="827" pageHeight="1169" math="0" shadow="0">
      <root>
        <mxCell id="0" />
        <mxCell id="1" parent="0" />
        <mxCell id="OyDi92PV4H05NFlCl_Wu-1" value="" style="group" vertex="1" connectable="0" parent="1">
          <mxGeometry x="150" y="190" width="190" height="180" as="geometry" />
        </mxCell>
        <mxCell id="OyDi92PV4H05NFlCl_Wu-2" value="0" style="shape=hexagon;perimeter=hexagonPerimeter2;whiteSpace=wrap;html=1;fixedSize=1;direction=south;size=20.909090909090963;" vertex="1" parent="OyDi92PV4H05NFlCl_Wu-1">
          <mxGeometry x="45" y="109.09090909090908" width="45" height="65.45454545454545" as="geometry" />
        </mxCell>
        <mxCell id="OyDi92PV4H05NFlCl_Wu-3" value="1" style="shape=hexagon;perimeter=hexagonPerimeter2;whiteSpace=wrap;html=1;fixedSize=1;direction=south;size=20.90909090909099;" vertex="1" parent="OyDi92PV4H05NFlCl_Wu-1">
          <mxGeometry x="101.25" y="109.09090909090908" width="45" height="65.45454545454545" as="geometry" />
        </mxCell>
        <mxCell id="OyDi92PV4H05NFlCl_Wu-4" value="e.g. 7" style="shape=hexagon;perimeter=hexagonPerimeter2;whiteSpace=wrap;html=1;fixedSize=1;direction=south;size=20;" vertex="1" parent="OyDi92PV4H05NFlCl_Wu-1">
          <mxGeometry x="45" width="45" height="65.45454545454545" as="geometry" />
        </mxCell>
        <mxCell id="OyDi92PV4H05NFlCl_Wu-5" value="" style="curved=1;endArrow=classic;html=1;rounded=0;exitX=1;exitY=0.25;exitDx=0;exitDy=0;entryX=1;entryY=0.75;entryDx=0;entryDy=0;" edge="1" parent="OyDi92PV4H05NFlCl_Wu-1" source="OyDi92PV4H05NFlCl_Wu-2" target="OyDi92PV4H05NFlCl_Wu-3">
          <mxGeometry width="50" height="50" relative="1" as="geometry">
            <mxPoint x="95.625" y="223.6363636363636" as="sourcePoint" />
            <mxPoint x="123.75" y="196.36363636363635" as="targetPoint" />
            <Array as="points">
              <mxPoint x="78.75" y="174.54545454545453" />
              <mxPoint x="101.25" y="180" />
            </Array>
          </mxGeometry>
        </mxCell>
        <mxCell id="OyDi92PV4H05NFlCl_Wu-6" value="" style="curved=1;endArrow=classic;html=1;rounded=0;exitX=0.5;exitY=0;exitDx=0;exitDy=0;entryX=0.5;entryY=0;entryDx=0;entryDy=0;" edge="1" parent="OyDi92PV4H05NFlCl_Wu-1" source="OyDi92PV4H05NFlCl_Wu-3">
          <mxGeometry width="50" height="50" relative="1" as="geometry">
            <mxPoint x="168.75" y="141.81818181818178" as="sourcePoint" />
            <mxPoint x="118.125" y="87.27272727272725" as="targetPoint" />
            <Array as="points">
              <mxPoint x="163.125" y="141.81818181818178" />
              <mxPoint x="168.75" y="114.54545454545456" />
              <mxPoint x="140.625" y="87.27272727272727" />
            </Array>
          </mxGeometry>
        </mxCell>
        <mxCell id="OyDi92PV4H05NFlCl_Wu-7" value="" style="curved=1;endArrow=classic;html=1;rounded=0;exitX=0.375;exitY=1;exitDx=0;exitDy=0;entryX=0.5;entryY=1;entryDx=0;entryDy=0;" edge="1" parent="OyDi92PV4H05NFlCl_Wu-1" source="OyDi92PV4H05NFlCl_Wu-2">
          <mxGeometry width="50" height="50" relative="1" as="geometry">
            <mxPoint x="5.625" y="120" as="sourcePoint" />
            <mxPoint x="73.125" y="87.27272727272725" as="targetPoint" />
            <Array as="points">
              <mxPoint x="28.125" y="125.45454545454544" />
              <mxPoint x="28.125" y="87.27272727272727" />
              <mxPoint x="56.25" y="87.27272727272727" />
            </Array>
          </mxGeometry>
        </mxCell>
        <mxCell id="OyDi92PV4H05NFlCl_Wu-8" value="" style="curved=1;endArrow=classic;html=1;rounded=0;exitX=0.625;exitY=1;exitDx=0;exitDy=0;entryX=0.5;entryY=1;entryDx=0;entryDy=0;" edge="1" parent="OyDi92PV4H05NFlCl_Wu-1" source="OyDi92PV4H05NFlCl_Wu-2" target="OyDi92PV4H05NFlCl_Wu-4">
          <mxGeometry width="50" height="50" relative="1" as="geometry">
            <mxPoint x="-28.125" y="125.45454545454544" as="sourcePoint" />
            <mxPoint y="98.18181818181817" as="targetPoint" />
            <Array as="points">
              <mxPoint y="114.54545454545456" />
              <mxPoint x="5.625" y="38.18181818181818" />
            </Array>
          </mxGeometry>
        </mxCell>
        <mxCell id="OyDi92PV4H05NFlCl_Wu-9" value="e.g. 4" style="shape=hexagon;perimeter=hexagonPerimeter2;whiteSpace=wrap;html=1;fixedSize=1;direction=south;size=20;" vertex="1" parent="OyDi92PV4H05NFlCl_Wu-1">
          <mxGeometry x="72.5" y="54" width="45" height="65.45454545454545" as="geometry" />
        </mxCell>
        <mxCell id="OyDi92PV4H05NFlCl_Wu-10" value="d+1" style="text;html=1;align=center;verticalAlign=middle;whiteSpace=wrap;rounded=0;" vertex="1" parent="OyDi92PV4H05NFlCl_Wu-1">
          <mxGeometry x="12.5" y="60" width="60" height="30" as="geometry" />
        </mxCell>
        <mxCell id="OyDi92PV4H05NFlCl_Wu-11" value="d" style="text;html=1;align=center;verticalAlign=middle;whiteSpace=wrap;rounded=0;" vertex="1" parent="OyDi92PV4H05NFlCl_Wu-1">
          <mxGeometry x="130" y="79.09" width="60" height="30" as="geometry" />
        </mxCell>
        <mxCell id="OyDi92PV4H05NFlCl_Wu-12" value="2d+1" style="text;html=1;align=center;verticalAlign=middle;whiteSpace=wrap;rounded=0;" vertex="1" parent="OyDi92PV4H05NFlCl_Wu-1">
          <mxGeometry x="-15" y="10" width="60" height="30" as="geometry" />
        </mxCell>
        <mxCell id="OyDi92PV4H05NFlCl_Wu-13" value="1" style="text;html=1;align=center;verticalAlign=middle;whiteSpace=wrap;rounded=0;" vertex="1" parent="1">
          <mxGeometry x="215" y="370" width="60" height="30" as="geometry" />
        </mxCell>
        <mxCell id="OyDi92PV4H05NFlCl_Wu-14" value="0" style="whiteSpace=wrap;html=1;aspect=fixed;" vertex="1" parent="1">
          <mxGeometry x="400" y="320" width="40" height="40" as="geometry" />
        </mxCell>
        <mxCell id="OyDi92PV4H05NFlCl_Wu-15" value="e.g. 5" style="whiteSpace=wrap;html=1;aspect=fixed;" vertex="1" parent="1">
          <mxGeometry x="400" y="260" width="40" height="40" as="geometry" />
        </mxCell>
        <mxCell id="OyDi92PV4H05NFlCl_Wu-16" value="e.g.10" style="whiteSpace=wrap;html=1;aspect=fixed;" vertex="1" parent="1">
          <mxGeometry x="400" y="200" width="40" height="40" as="geometry" />
        </mxCell>
        <mxCell id="OyDi92PV4H05NFlCl_Wu-17" value="1" style="whiteSpace=wrap;html=1;aspect=fixed;" vertex="1" parent="1">
          <mxGeometry x="460" y="320" width="40" height="40" as="geometry" />
        </mxCell>
        <mxCell id="OyDi92PV4H05NFlCl_Wu-18" value="1" style="text;html=1;align=center;verticalAlign=middle;whiteSpace=wrap;rounded=0;" vertex="1" parent="1">
          <mxGeometry x="420" y="370" width="60" height="30" as="geometry" />
        </mxCell>
        <mxCell id="OyDi92PV4H05NFlCl_Wu-33" value="d" style="text;html=1;align=center;verticalAlign=middle;whiteSpace=wrap;rounded=0;" vertex="1" parent="1">
          <mxGeometry x="450" y="270" width="60" height="30" as="geometry" />
        </mxCell>
        <mxCell id="OyDi92PV4H05NFlCl_Wu-48" value="d+1" style="text;html=1;align=center;verticalAlign=middle;whiteSpace=wrap;rounded=0;" vertex="1" parent="1">
          <mxGeometry x="350" y="265" width="60" height="30" as="geometry" />
        </mxCell>
        <mxCell id="OyDi92PV4H05NFlCl_Wu-49" value="2d+2" style="text;html=1;align=center;verticalAlign=middle;whiteSpace=wrap;rounded=0;" vertex="1" parent="1">
          <mxGeometry x="340" y="210" width="60" height="30" as="geometry" />
        </mxCell>
        <mxCell id="OyDi92PV4H05NFlCl_Wu-51" value="" style="curved=1;endArrow=classic;html=1;rounded=0;entryX=0.5;entryY=1;entryDx=0;entryDy=0;" edge="1" parent="1" target="OyDi92PV4H05NFlCl_Wu-17">
          <mxGeometry width="50" height="50" relative="1" as="geometry">
            <mxPoint x="420" y="360" as="sourcePoint" />
            <mxPoint x="470" y="310" as="targetPoint" />
            <Array as="points">
              <mxPoint x="450" y="390" />
            </Array>
          </mxGeometry>
        </mxCell>
        <mxCell id="OyDi92PV4H05NFlCl_Wu-53" value="" style="curved=1;endArrow=classic;html=1;rounded=0;entryX=1;entryY=0.5;entryDx=0;entryDy=0;" edge="1" parent="1" target="OyDi92PV4H05NFlCl_Wu-15">
          <mxGeometry width="50" height="50" relative="1" as="geometry">
            <mxPoint x="480" y="320" as="sourcePoint" />
            <mxPoint x="530" y="270" as="targetPoint" />
            <Array as="points">
              <mxPoint x="480" y="300" />
              <mxPoint x="460" y="280" />
            </Array>
          </mxGeometry>
        </mxCell>
        <mxCell id="OyDi92PV4H05NFlCl_Wu-55" value="" style="curved=1;endArrow=classic;html=1;rounded=0;entryX=0;entryY=0.5;entryDx=0;entryDy=0;exitX=0;exitY=0.25;exitDx=0;exitDy=0;" edge="1" parent="1" source="OyDi92PV4H05NFlCl_Wu-14" target="OyDi92PV4H05NFlCl_Wu-15">
          <mxGeometry width="50" height="50" relative="1" as="geometry">
            <mxPoint x="400" y="340" as="sourcePoint" />
            <mxPoint x="450" y="290" as="targetPoint" />
            <Array as="points">
              <mxPoint x="360" y="310" />
            </Array>
          </mxGeometry>
        </mxCell>
        <mxCell id="OyDi92PV4H05NFlCl_Wu-56" value="" style="curved=1;endArrow=classic;html=1;rounded=0;entryX=0;entryY=0.5;entryDx=0;entryDy=0;exitX=0;exitY=0.25;exitDx=0;exitDy=0;" edge="1" parent="1" target="OyDi92PV4H05NFlCl_Wu-16">
          <mxGeometry width="50" height="50" relative="1" as="geometry">
            <mxPoint x="400" y="350" as="sourcePoint" />
            <mxPoint x="400" y="300" as="targetPoint" />
            <Array as="points">
              <mxPoint x="300" y="300" />
            </Array>
          </mxGeometry>
        </mxCell>
      </root>
    </mxGraphModel>
  </diagram>
  <diagram id="NWilSycqfetM5jOafKUK" name="Rectangular">
    <mxGraphModel dx="754" dy="384" grid="1" gridSize="10" guides="1" tooltips="1" connect="1" arrows="1" fold="1" page="1" pageScale="1" pageWidth="827" pageHeight="1169" math="0" shadow="0">
      <root>
        <mxCell id="0" />
        <mxCell id="1" parent="0" />
        <mxCell id="rQ8UdzBweRqrjTagQDDQ-1" value="" style="whiteSpace=wrap;html=1;aspect=fixed;" vertex="1" parent="1">
          <mxGeometry x="400" y="420" width="40" height="40" as="geometry" />
        </mxCell>
        <mxCell id="rQ8UdzBweRqrjTagQDDQ-2" value="" style="whiteSpace=wrap;html=1;aspect=fixed;" vertex="1" parent="1">
          <mxGeometry x="400" y="360" width="40" height="40" as="geometry" />
        </mxCell>
        <mxCell id="rQ8UdzBweRqrjTagQDDQ-3" value="" style="whiteSpace=wrap;html=1;aspect=fixed;" vertex="1" parent="1">
          <mxGeometry x="400" y="300" width="40" height="40" as="geometry" />
        </mxCell>
        <mxCell id="rQ8UdzBweRqrjTagQDDQ-4" value="" style="whiteSpace=wrap;html=1;aspect=fixed;" vertex="1" parent="1">
          <mxGeometry x="460" y="420" width="40" height="40" as="geometry" />
        </mxCell>
        <mxCell id="rQ8UdzBweRqrjTagQDDQ-5" value="1" style="text;html=1;align=center;verticalAlign=middle;whiteSpace=wrap;rounded=0;" vertex="1" parent="1">
          <mxGeometry x="420" y="470" width="60" height="30" as="geometry" />
        </mxCell>
        <mxCell id="rQ8UdzBweRqrjTagQDDQ-6" value="d" style="text;html=1;align=center;verticalAlign=middle;whiteSpace=wrap;rounded=0;" vertex="1" parent="1">
          <mxGeometry x="450" y="370" width="60" height="30" as="geometry" />
        </mxCell>
        <mxCell id="rQ8UdzBweRqrjTagQDDQ-7" value="d+1" style="text;html=1;align=center;verticalAlign=middle;whiteSpace=wrap;rounded=0;" vertex="1" parent="1">
          <mxGeometry x="350" y="365" width="60" height="30" as="geometry" />
        </mxCell>
        <mxCell id="rQ8UdzBweRqrjTagQDDQ-8" value="2d+2" style="text;html=1;align=center;verticalAlign=middle;whiteSpace=wrap;rounded=0;" vertex="1" parent="1">
          <mxGeometry x="340" y="310" width="60" height="30" as="geometry" />
        </mxCell>
        <mxCell id="rQ8UdzBweRqrjTagQDDQ-9" value="" style="curved=1;endArrow=classic;html=1;rounded=0;entryX=0.5;entryY=1;entryDx=0;entryDy=0;" edge="1" target="rQ8UdzBweRqrjTagQDDQ-4" parent="1">
          <mxGeometry width="50" height="50" relative="1" as="geometry">
            <mxPoint x="420" y="460" as="sourcePoint" />
            <mxPoint x="470" y="410" as="targetPoint" />
            <Array as="points">
              <mxPoint x="450" y="490" />
            </Array>
          </mxGeometry>
        </mxCell>
        <mxCell id="rQ8UdzBweRqrjTagQDDQ-10" value="" style="curved=1;endArrow=classic;html=1;rounded=0;entryX=1;entryY=0.5;entryDx=0;entryDy=0;" edge="1" target="rQ8UdzBweRqrjTagQDDQ-2" parent="1">
          <mxGeometry width="50" height="50" relative="1" as="geometry">
            <mxPoint x="480" y="420" as="sourcePoint" />
            <mxPoint x="530" y="370" as="targetPoint" />
            <Array as="points">
              <mxPoint x="480" y="400" />
              <mxPoint x="460" y="380" />
            </Array>
          </mxGeometry>
        </mxCell>
        <mxCell id="rQ8UdzBweRqrjTagQDDQ-11" value="" style="curved=1;endArrow=classic;html=1;rounded=0;entryX=0;entryY=0.5;entryDx=0;entryDy=0;exitX=0;exitY=0.25;exitDx=0;exitDy=0;" edge="1" source="rQ8UdzBweRqrjTagQDDQ-1" target="rQ8UdzBweRqrjTagQDDQ-2" parent="1">
          <mxGeometry width="50" height="50" relative="1" as="geometry">
            <mxPoint x="400" y="440" as="sourcePoint" />
            <mxPoint x="450" y="390" as="targetPoint" />
            <Array as="points">
              <mxPoint x="360" y="410" />
            </Array>
          </mxGeometry>
        </mxCell>
        <mxCell id="rQ8UdzBweRqrjTagQDDQ-12" value="" style="curved=1;endArrow=classic;html=1;rounded=0;entryX=0;entryY=0.5;entryDx=0;entryDy=0;exitX=0;exitY=0.25;exitDx=0;exitDy=0;" edge="1" target="rQ8UdzBweRqrjTagQDDQ-3" parent="1">
          <mxGeometry width="50" height="50" relative="1" as="geometry">
            <mxPoint x="400" y="450" as="sourcePoint" />
            <mxPoint x="400" y="400" as="targetPoint" />
            <Array as="points">
              <mxPoint x="300" y="400" />
            </Array>
          </mxGeometry>
        </mxCell>
      </root>
    </mxGraphModel>
  </diagram>
  <diagram id="RbFR407ivXq0XjH2EYqI" name="tilted wicki-hayden">
    <mxGraphModel dx="686" dy="357" grid="1" gridSize="10" guides="1" tooltips="1" connect="1" arrows="1" fold="1" page="1" pageScale="1" pageWidth="850" pageHeight="1100" math="0" shadow="0">
      <root>
        <mxCell id="0" />
        <mxCell id="1" parent="0" />
        <mxCell id="DyOBivkbaeJgVPfCUDYr-1" value="" style="group" vertex="1" connectable="0" parent="1">
          <mxGeometry x="190" y="160" width="190" height="180" as="geometry" />
        </mxCell>
        <mxCell id="DyOBivkbaeJgVPfCUDYr-2" value="0" style="shape=hexagon;perimeter=hexagonPerimeter2;whiteSpace=wrap;html=1;fixedSize=1;direction=south;size=20.909090909090963;" vertex="1" parent="DyOBivkbaeJgVPfCUDYr-1">
          <mxGeometry x="45" y="109.09090909090908" width="45" height="65.45454545454545" as="geometry" />
        </mxCell>
        <mxCell id="DyOBivkbaeJgVPfCUDYr-3" value="e.g. 7" style="shape=hexagon;perimeter=hexagonPerimeter2;whiteSpace=wrap;html=1;fixedSize=1;direction=south;size=20.90909090909099;" vertex="1" parent="DyOBivkbaeJgVPfCUDYr-1">
          <mxGeometry x="101.25" y="109.09090909090908" width="45" height="65.45454545454545" as="geometry" />
        </mxCell>
        <mxCell id="DyOBivkbaeJgVPfCUDYr-4" value="e.g. -3" style="shape=hexagon;perimeter=hexagonPerimeter2;whiteSpace=wrap;html=1;fixedSize=1;direction=south;size=20;" vertex="1" parent="DyOBivkbaeJgVPfCUDYr-1">
          <mxGeometry x="45" width="45" height="65.45454545454545" as="geometry" />
        </mxCell>
        <mxCell id="DyOBivkbaeJgVPfCUDYr-5" value="" style="curved=1;endArrow=classic;html=1;rounded=0;exitX=1;exitY=0.25;exitDx=0;exitDy=0;entryX=1;entryY=0.75;entryDx=0;entryDy=0;" edge="1" parent="DyOBivkbaeJgVPfCUDYr-1" source="DyOBivkbaeJgVPfCUDYr-2" target="DyOBivkbaeJgVPfCUDYr-3">
          <mxGeometry width="50" height="50" relative="1" as="geometry">
            <mxPoint x="95.625" y="223.6363636363636" as="sourcePoint" />
            <mxPoint x="123.75" y="196.36363636363635" as="targetPoint" />
            <Array as="points">
              <mxPoint x="78.75" y="174.54545454545453" />
              <mxPoint x="101.25" y="180" />
            </Array>
          </mxGeometry>
        </mxCell>
        <mxCell id="DyOBivkbaeJgVPfCUDYr-6" value="" style="curved=1;endArrow=none;html=1;rounded=0;exitX=0.5;exitY=0;exitDx=0;exitDy=0;entryX=0.5;entryY=0;entryDx=0;entryDy=0;startArrow=classic;startFill=1;endFill=0;" edge="1" parent="DyOBivkbaeJgVPfCUDYr-1" source="DyOBivkbaeJgVPfCUDYr-3">
          <mxGeometry width="50" height="50" relative="1" as="geometry">
            <mxPoint x="168.75" y="141.81818181818178" as="sourcePoint" />
            <mxPoint x="118.125" y="87.27272727272725" as="targetPoint" />
            <Array as="points">
              <mxPoint x="163.125" y="141.81818181818178" />
              <mxPoint x="168.75" y="114.54545454545456" />
              <mxPoint x="140.625" y="87.27272727272727" />
            </Array>
          </mxGeometry>
        </mxCell>
        <mxCell id="DyOBivkbaeJgVPfCUDYr-7" value="" style="curved=1;endArrow=classic;html=1;rounded=0;exitX=0.375;exitY=1;exitDx=0;exitDy=0;entryX=0.5;entryY=1;entryDx=0;entryDy=0;" edge="1" parent="DyOBivkbaeJgVPfCUDYr-1" source="DyOBivkbaeJgVPfCUDYr-2">
          <mxGeometry width="50" height="50" relative="1" as="geometry">
            <mxPoint x="5.625" y="120" as="sourcePoint" />
            <mxPoint x="73.125" y="87.27272727272725" as="targetPoint" />
            <Array as="points">
              <mxPoint x="28.125" y="125.45454545454544" />
              <mxPoint x="28.125" y="87.27272727272727" />
              <mxPoint x="56.25" y="87.27272727272727" />
            </Array>
          </mxGeometry>
        </mxCell>
        <mxCell id="DyOBivkbaeJgVPfCUDYr-8" value="" style="curved=1;endArrow=none;html=1;rounded=0;exitX=0.625;exitY=1;exitDx=0;exitDy=0;entryX=0.5;entryY=1;entryDx=0;entryDy=0;startArrow=classic;startFill=1;endFill=0;" edge="1" parent="DyOBivkbaeJgVPfCUDYr-1" source="DyOBivkbaeJgVPfCUDYr-2" target="DyOBivkbaeJgVPfCUDYr-4">
          <mxGeometry width="50" height="50" relative="1" as="geometry">
            <mxPoint x="-28.125" y="125.45454545454544" as="sourcePoint" />
            <mxPoint y="98.18181818181817" as="targetPoint" />
            <Array as="points">
              <mxPoint y="114.54545454545456" />
              <mxPoint x="5.625" y="38.18181818181818" />
            </Array>
          </mxGeometry>
        </mxCell>
        <mxCell id="DyOBivkbaeJgVPfCUDYr-9" value="e.g. 2" style="shape=hexagon;perimeter=hexagonPerimeter2;whiteSpace=wrap;html=1;fixedSize=1;direction=south;size=20;" vertex="1" parent="DyOBivkbaeJgVPfCUDYr-1">
          <mxGeometry x="72.5" y="54" width="45" height="65.45454545454545" as="geometry" />
        </mxCell>
        <mxCell id="DyOBivkbaeJgVPfCUDYr-10" value="d-f&lt;sub&gt;3&lt;/sub&gt;(d)" style="text;html=1;align=center;verticalAlign=middle;whiteSpace=wrap;rounded=0;" vertex="1" parent="DyOBivkbaeJgVPfCUDYr-1">
          <mxGeometry x="12.5" y="60" width="60" height="30" as="geometry" />
        </mxCell>
        <mxCell id="DyOBivkbaeJgVPfCUDYr-11" value="d" style="text;html=1;align=center;verticalAlign=middle;whiteSpace=wrap;rounded=0;" vertex="1" parent="DyOBivkbaeJgVPfCUDYr-1">
          <mxGeometry x="-15" y="10" width="60" height="30" as="geometry" />
        </mxCell>
        <mxCell id="DyOBivkbaeJgVPfCUDYr-12" value="3d-2f&lt;sub&gt;3&lt;/sub&gt;(d)" style="text;html=1;align=center;verticalAlign=middle;whiteSpace=wrap;rounded=0;" vertex="1" parent="1">
          <mxGeometry x="255" y="340" width="60" height="30" as="geometry" />
        </mxCell>
        <mxCell id="DyOBivkbaeJgVPfCUDYr-13" value="2d-f&lt;sub&gt;3&lt;/sub&gt;(d)" style="text;html=1;align=center;verticalAlign=middle;whiteSpace=wrap;rounded=0;" vertex="1" parent="1">
          <mxGeometry x="340" y="239.09" width="60" height="30" as="geometry" />
        </mxCell>
      </root>
    </mxGraphModel>
  </diagram>
  <diagram id="YTSNbFEGtMixJh5QRBDK" name="tilted bosanquet-wilson">
    <mxGraphModel dx="686" dy="357" grid="1" gridSize="10" guides="1" tooltips="1" connect="1" arrows="1" fold="1" page="1" pageScale="1" pageWidth="850" pageHeight="1100" math="0" shadow="0">
      <root>
        <mxCell id="0" />
        <mxCell id="1" parent="0" />
        <mxCell id="lNHg2b4TculIU8w7n0WU-1" value="" style="group" vertex="1" connectable="0" parent="1">
          <mxGeometry x="430" y="240" width="190" height="180" as="geometry" />
        </mxCell>
        <mxCell id="lNHg2b4TculIU8w7n0WU-2" value="0" style="shape=hexagon;perimeter=hexagonPerimeter2;whiteSpace=wrap;html=1;fixedSize=1;direction=south;size=20.909090909090963;" vertex="1" parent="lNHg2b4TculIU8w7n0WU-1">
          <mxGeometry x="45" y="109.09090909090908" width="45" height="65.45454545454545" as="geometry" />
        </mxCell>
        <mxCell id="lNHg2b4TculIU8w7n0WU-3" value="e.g. 1" style="shape=hexagon;perimeter=hexagonPerimeter2;whiteSpace=wrap;html=1;fixedSize=1;direction=south;size=20.90909090909099;" vertex="1" parent="lNHg2b4TculIU8w7n0WU-1">
          <mxGeometry x="101.25" y="109.09090909090908" width="45" height="65.45454545454545" as="geometry" />
        </mxCell>
        <mxCell id="lNHg2b4TculIU8w7n0WU-4" value="&lt;div&gt;e.g. 3&lt;br&gt;&lt;/div&gt;(or 5)" style="shape=hexagon;perimeter=hexagonPerimeter2;whiteSpace=wrap;html=1;fixedSize=1;direction=south;size=20;" vertex="1" parent="lNHg2b4TculIU8w7n0WU-1">
          <mxGeometry x="45" width="45" height="65.45454545454545" as="geometry" />
        </mxCell>
        <mxCell id="lNHg2b4TculIU8w7n0WU-5" value="" style="curved=1;endArrow=classic;html=1;rounded=0;exitX=1;exitY=0.25;exitDx=0;exitDy=0;entryX=1;entryY=0.75;entryDx=0;entryDy=0;" edge="1" parent="lNHg2b4TculIU8w7n0WU-1" source="lNHg2b4TculIU8w7n0WU-2" target="lNHg2b4TculIU8w7n0WU-3">
          <mxGeometry width="50" height="50" relative="1" as="geometry">
            <mxPoint x="95.625" y="223.6363636363636" as="sourcePoint" />
            <mxPoint x="123.75" y="196.36363636363635" as="targetPoint" />
            <Array as="points">
              <mxPoint x="78.75" y="174.54545454545453" />
              <mxPoint x="101.25" y="180" />
            </Array>
          </mxGeometry>
        </mxCell>
        <mxCell id="lNHg2b4TculIU8w7n0WU-6" value="" style="curved=1;endArrow=classic;html=1;rounded=0;exitX=0.5;exitY=0;exitDx=0;exitDy=0;entryX=0.5;entryY=0;entryDx=0;entryDy=0;startArrow=none;startFill=0;endFill=1;" edge="1" parent="lNHg2b4TculIU8w7n0WU-1" source="lNHg2b4TculIU8w7n0WU-3">
          <mxGeometry width="50" height="50" relative="1" as="geometry">
            <mxPoint x="168.75" y="141.81818181818178" as="sourcePoint" />
            <mxPoint x="118.125" y="87.27272727272725" as="targetPoint" />
            <Array as="points">
              <mxPoint x="163.125" y="141.81818181818178" />
              <mxPoint x="168.75" y="114.54545454545456" />
              <mxPoint x="140.625" y="87.27272727272727" />
            </Array>
          </mxGeometry>
        </mxCell>
        <mxCell id="lNHg2b4TculIU8w7n0WU-7" value="" style="curved=1;endArrow=classic;html=1;rounded=0;exitX=0.375;exitY=1;exitDx=0;exitDy=0;entryX=0.5;entryY=1;entryDx=0;entryDy=0;" edge="1" parent="lNHg2b4TculIU8w7n0WU-1" source="lNHg2b4TculIU8w7n0WU-2">
          <mxGeometry width="50" height="50" relative="1" as="geometry">
            <mxPoint x="5.625" y="120" as="sourcePoint" />
            <mxPoint x="73.125" y="87.27272727272725" as="targetPoint" />
            <Array as="points">
              <mxPoint x="28.125" y="125.45454545454544" />
              <mxPoint x="28.125" y="87.27272727272727" />
              <mxPoint x="56.25" y="87.27272727272727" />
            </Array>
          </mxGeometry>
        </mxCell>
        <mxCell id="lNHg2b4TculIU8w7n0WU-8" value="" style="curved=1;endArrow=classic;html=1;rounded=0;exitX=0.625;exitY=1;exitDx=0;exitDy=0;entryX=0.5;entryY=1;entryDx=0;entryDy=0;startArrow=none;startFill=0;endFill=1;" edge="1" parent="lNHg2b4TculIU8w7n0WU-1" source="lNHg2b4TculIU8w7n0WU-2" target="lNHg2b4TculIU8w7n0WU-4">
          <mxGeometry width="50" height="50" relative="1" as="geometry">
            <mxPoint x="-28.125" y="125.45454545454544" as="sourcePoint" />
            <mxPoint y="98.18181818181817" as="targetPoint" />
            <Array as="points">
              <mxPoint y="114.54545454545456" />
              <mxPoint x="5.625" y="38.18181818181818" />
            </Array>
          </mxGeometry>
        </mxCell>
        <mxCell id="lNHg2b4TculIU8w7n0WU-9" value="e.g. 2&lt;br&gt;(or 3)" style="shape=hexagon;perimeter=hexagonPerimeter2;whiteSpace=wrap;html=1;fixedSize=1;direction=south;size=20;" vertex="1" parent="lNHg2b4TculIU8w7n0WU-1">
          <mxGeometry x="72.5" y="54" width="45" height="65.45454545454545" as="geometry" />
        </mxCell>
        <mxCell id="lNHg2b4TculIU8w7n0WU-10" value="d-f&lt;sub&gt;3&lt;/sub&gt;(d)" style="text;html=1;align=center;verticalAlign=middle;whiteSpace=wrap;rounded=0;" vertex="1" parent="lNHg2b4TculIU8w7n0WU-1">
          <mxGeometry x="12.5" y="60" width="60" height="30" as="geometry" />
        </mxCell>
        <mxCell id="lNHg2b4TculIU8w7n0WU-11" value="d-2f&lt;sub&gt;3&lt;/sub&gt;(d)" style="text;html=1;align=center;verticalAlign=middle;whiteSpace=wrap;rounded=0;" vertex="1" parent="lNHg2b4TculIU8w7n0WU-1">
          <mxGeometry x="146.25" y="79.09" width="60" height="30" as="geometry" />
        </mxCell>
        <mxCell id="lNHg2b4TculIU8w7n0WU-12" value="2d-3f&lt;sub&gt;3&lt;/sub&gt;(d)" style="text;html=1;align=center;verticalAlign=middle;whiteSpace=wrap;rounded=0;" vertex="1" parent="lNHg2b4TculIU8w7n0WU-1">
          <mxGeometry x="-15" y="10" width="60" height="30" as="geometry" />
        </mxCell>
        <mxCell id="lNHg2b4TculIU8w7n0WU-13" value="f&lt;sub&gt;3&lt;/sub&gt;(d)" style="text;html=1;align=center;verticalAlign=middle;whiteSpace=wrap;rounded=0;" vertex="1" parent="1">
          <mxGeometry x="496" y="420" width="60" height="30" as="geometry" />
        </mxCell>
      </root>
    </mxGraphModel>
  </diagram>
  <diagram id="TJm9yVJbUNOTkZ1PW10p" name="splits">
    <mxGraphModel dx="686" dy="357" grid="1" gridSize="10" guides="1" tooltips="1" connect="1" arrows="1" fold="1" page="1" pageScale="1" pageWidth="850" pageHeight="1100" math="0" shadow="0">
      <root>
        <mxCell id="0" />
        <mxCell id="1" parent="0" />
        <mxCell id="JWtOPPIHhOC0-rzyzqFX-2" value="" style="shape=hexagon;perimeter=hexagonPerimeter2;whiteSpace=wrap;html=1;fixedSize=1;direction=south;size=10;fillColor=#000000;" vertex="1" parent="1">
          <mxGeometry x="160" y="120" width="30" height="35.46" as="geometry" />
        </mxCell>
        <mxCell id="JWtOPPIHhOC0-rzyzqFX-6" value="" style="shape=hexagon;perimeter=hexagonPerimeter2;whiteSpace=wrap;html=1;fixedSize=1;direction=south;size=10;fillColor=#000000;" vertex="1" parent="1">
          <mxGeometry x="200" y="120" width="30" height="35.46" as="geometry" />
        </mxCell>
        <mxCell id="JWtOPPIHhOC0-rzyzqFX-7" value="" style="shape=hexagon;perimeter=hexagonPerimeter2;whiteSpace=wrap;html=1;fixedSize=1;direction=south;size=10;fillColor=#000000;" vertex="1" parent="1">
          <mxGeometry x="240" y="120" width="30" height="35.46" as="geometry" />
        </mxCell>
        <mxCell id="JWtOPPIHhOC0-rzyzqFX-8" value="" style="shape=hexagon;perimeter=hexagonPerimeter2;whiteSpace=wrap;html=1;fixedSize=1;direction=south;size=10;fillColor=#000000;" vertex="1" parent="1">
          <mxGeometry x="280" y="120" width="30" height="35.46" as="geometry" />
        </mxCell>
        <mxCell id="JWtOPPIHhOC0-rzyzqFX-9" value="" style="shape=hexagon;perimeter=hexagonPerimeter2;whiteSpace=wrap;html=1;fixedSize=1;direction=south;size=10;fillColor=#000000;" vertex="1" parent="1">
          <mxGeometry x="320" y="120" width="30" height="35.46" as="geometry" />
        </mxCell>
        <mxCell id="JWtOPPIHhOC0-rzyzqFX-10" value="&lt;font color=&quot;#ffffff&quot;&gt;0&lt;/font&gt;" style="shape=hexagon;perimeter=hexagonPerimeter2;whiteSpace=wrap;html=1;fixedSize=1;direction=south;size=10;fillColor=#000000;" vertex="1" parent="1">
          <mxGeometry x="440" y="120" width="30" height="35.46" as="geometry" />
        </mxCell>
        <mxCell id="JWtOPPIHhOC0-rzyzqFX-11" value="" style="shape=hexagon;perimeter=hexagonPerimeter2;whiteSpace=wrap;html=1;fixedSize=1;direction=south;size=10;fillColor=#000000;" vertex="1" parent="1">
          <mxGeometry x="480" y="120" width="30" height="35.46" as="geometry" />
        </mxCell>
        <mxCell id="JWtOPPIHhOC0-rzyzqFX-12" value="" style="shape=hexagon;perimeter=hexagonPerimeter2;whiteSpace=wrap;html=1;fixedSize=1;direction=south;size=10;fillColor=#000000;" vertex="1" parent="1">
          <mxGeometry x="520" y="120" width="30" height="35.46" as="geometry" />
        </mxCell>
        <mxCell id="JWtOPPIHhOC0-rzyzqFX-13" value="" style="shape=hexagon;perimeter=hexagonPerimeter2;whiteSpace=wrap;html=1;fixedSize=1;direction=south;size=10;fillColor=#000000;" vertex="1" parent="1">
          <mxGeometry x="560" y="120" width="30" height="35.46" as="geometry" />
        </mxCell>
        <mxCell id="JWtOPPIHhOC0-rzyzqFX-14" value="&lt;font color=&quot;#ffffff&quot;&gt;0&lt;/font&gt;" style="shape=hexagon;perimeter=hexagonPerimeter2;whiteSpace=wrap;html=1;fixedSize=1;direction=south;size=10;fillColor=#000000;" vertex="1" parent="1">
          <mxGeometry x="600" y="120" width="30" height="35.46" as="geometry" />
        </mxCell>
        <mxCell id="JWtOPPIHhOC0-rzyzqFX-15" value="" style="shape=hexagon;perimeter=hexagonPerimeter2;whiteSpace=wrap;html=1;fixedSize=1;direction=south;size=10;fillColor=#FFFFFF;" vertex="1" parent="1">
          <mxGeometry x="140" y="84.54" width="30" height="35.46" as="geometry" />
        </mxCell>
        <mxCell id="JWtOPPIHhOC0-rzyzqFX-16" value="+" style="shape=hexagon;perimeter=hexagonPerimeter2;whiteSpace=wrap;html=1;fixedSize=1;direction=south;size=10;fillColor=#FFFFFF;" vertex="1" parent="1">
          <mxGeometry x="320" y="190" width="30" height="35.46" as="geometry" />
        </mxCell>
        <mxCell id="JWtOPPIHhOC0-rzyzqFX-17" value="" style="shape=hexagon;perimeter=hexagonPerimeter2;whiteSpace=wrap;html=1;fixedSize=1;direction=south;size=10;fillColor=#FFFFFF;" vertex="1" parent="1">
          <mxGeometry x="340" y="154.54000000000002" width="30" height="35.46" as="geometry" />
        </mxCell>
        <mxCell id="JWtOPPIHhOC0-rzyzqFX-18" value="-" style="shape=hexagon;perimeter=hexagonPerimeter2;whiteSpace=wrap;html=1;fixedSize=1;direction=south;size=10;fillColor=#FFFFFF;" vertex="1" parent="1">
          <mxGeometry x="160" y="49.08000000000001" width="30" height="35.46" as="geometry" />
        </mxCell>
        <mxCell id="JWtOPPIHhOC0-rzyzqFX-19" value="0" style="shape=hexagon;perimeter=hexagonPerimeter2;whiteSpace=wrap;html=1;fixedSize=1;direction=south;size=10;fillColor=#FFFFFF;" vertex="1" parent="1">
          <mxGeometry x="340" y="225.46" width="30" height="35.46" as="geometry" />
        </mxCell>
        <mxCell id="JWtOPPIHhOC0-rzyzqFX-20" value="0" style="shape=hexagon;perimeter=hexagonPerimeter2;whiteSpace=wrap;html=1;fixedSize=1;direction=south;size=10;fillColor=#FFFFFF;" vertex="1" parent="1">
          <mxGeometry x="140" y="13.620000000000005" width="30" height="35.46" as="geometry" />
        </mxCell>
        <mxCell id="JWtOPPIHhOC0-rzyzqFX-21" value="+" style="shape=hexagon;perimeter=hexagonPerimeter2;whiteSpace=wrap;html=1;fixedSize=1;direction=south;size=10;fillColor=#FFFFFF;" vertex="1" parent="1">
          <mxGeometry x="620" y="154.54000000000002" width="30" height="35.46" as="geometry" />
        </mxCell>
        <mxCell id="JWtOPPIHhOC0-rzyzqFX-22" value="-" style="shape=hexagon;perimeter=hexagonPerimeter2;whiteSpace=wrap;html=1;fixedSize=1;direction=south;size=10;fillColor=#FFFFFF;" vertex="1" parent="1">
          <mxGeometry x="420" y="84.54000000000002" width="30" height="35.46" as="geometry" />
        </mxCell>
      </root>
    </mxGraphModel>
  </diagram>
  <diagram name="Copy of splits" id="wn_lWJQPftFowLtPwqYE">
    <mxGraphModel dx="686" dy="357" grid="1" gridSize="10" guides="1" tooltips="1" connect="1" arrows="1" fold="1" page="1" pageScale="1" pageWidth="850" pageHeight="1100" math="0" shadow="0">
      <root>
        <mxCell id="sxUePtw3KaBQHePTFVJE-0" />
        <mxCell id="sxUePtw3KaBQHePTFVJE-1" parent="sxUePtw3KaBQHePTFVJE-0" />
        <mxCell id="sxUePtw3KaBQHePTFVJE-2" value="" style="shape=hexagon;perimeter=hexagonPerimeter2;whiteSpace=wrap;html=1;fixedSize=1;direction=south;size=10;fillColor=#000000;" vertex="1" parent="sxUePtw3KaBQHePTFVJE-1">
          <mxGeometry x="180" y="154.54" width="30" height="35.46" as="geometry" />
        </mxCell>
        <mxCell id="sxUePtw3KaBQHePTFVJE-3" value="" style="shape=hexagon;perimeter=hexagonPerimeter2;whiteSpace=wrap;html=1;fixedSize=1;direction=south;size=10;fillColor=#000000;" vertex="1" parent="sxUePtw3KaBQHePTFVJE-1">
          <mxGeometry x="220" y="154.54" width="30" height="35.46" as="geometry" />
        </mxCell>
        <mxCell id="sxUePtw3KaBQHePTFVJE-4" value="" style="shape=hexagon;perimeter=hexagonPerimeter2;whiteSpace=wrap;html=1;fixedSize=1;direction=south;size=10;fillColor=#000000;" vertex="1" parent="sxUePtw3KaBQHePTFVJE-1">
          <mxGeometry x="240" y="120" width="30" height="35.46" as="geometry" />
        </mxCell>
        <mxCell id="sxUePtw3KaBQHePTFVJE-5" value="" style="shape=hexagon;perimeter=hexagonPerimeter2;whiteSpace=wrap;html=1;fixedSize=1;direction=south;size=10;fillColor=#000000;" vertex="1" parent="sxUePtw3KaBQHePTFVJE-1">
          <mxGeometry x="260" y="84.53999999999999" width="30" height="35.46" as="geometry" />
        </mxCell>
        <mxCell id="sxUePtw3KaBQHePTFVJE-6" value="" style="shape=hexagon;perimeter=hexagonPerimeter2;whiteSpace=wrap;html=1;fixedSize=1;direction=south;size=10;fillColor=#000000;" vertex="1" parent="sxUePtw3KaBQHePTFVJE-1">
          <mxGeometry x="300" y="84.53999999999999" width="30" height="35.46" as="geometry" />
        </mxCell>
        <mxCell id="sxUePtw3KaBQHePTFVJE-7" value="&lt;font color=&quot;#ffffff&quot;&gt;0&lt;/font&gt;" style="shape=hexagon;perimeter=hexagonPerimeter2;whiteSpace=wrap;html=1;fixedSize=1;direction=south;size=10;fillColor=#000000;" vertex="1" parent="sxUePtw3KaBQHePTFVJE-1">
          <mxGeometry x="420" y="84.53999999999999" width="30" height="35.46" as="geometry" />
        </mxCell>
        <mxCell id="sxUePtw3KaBQHePTFVJE-8" value="" style="shape=hexagon;perimeter=hexagonPerimeter2;whiteSpace=wrap;html=1;fixedSize=1;direction=south;size=10;fillColor=#000000;" vertex="1" parent="sxUePtw3KaBQHePTFVJE-1">
          <mxGeometry x="500" y="85.46000000000001" width="30" height="35.46" as="geometry" />
        </mxCell>
        <mxCell id="sxUePtw3KaBQHePTFVJE-9" value="" style="shape=hexagon;perimeter=hexagonPerimeter2;whiteSpace=wrap;html=1;fixedSize=1;direction=south;size=10;fillColor=#000000;" vertex="1" parent="sxUePtw3KaBQHePTFVJE-1">
          <mxGeometry x="520" y="120" width="30" height="35.46" as="geometry" />
        </mxCell>
        <mxCell id="sxUePtw3KaBQHePTFVJE-10" value="" style="shape=hexagon;perimeter=hexagonPerimeter2;whiteSpace=wrap;html=1;fixedSize=1;direction=south;size=10;fillColor=#000000;" vertex="1" parent="sxUePtw3KaBQHePTFVJE-1">
          <mxGeometry x="540" y="154.54" width="30" height="35.46" as="geometry" />
        </mxCell>
        <mxCell id="sxUePtw3KaBQHePTFVJE-11" value="&lt;font color=&quot;#ffffff&quot;&gt;0&lt;/font&gt;" style="shape=hexagon;perimeter=hexagonPerimeter2;whiteSpace=wrap;html=1;fixedSize=1;direction=south;size=10;fillColor=#000000;" vertex="1" parent="sxUePtw3KaBQHePTFVJE-1">
          <mxGeometry x="620" y="155.46000000000004" width="30" height="35.46" as="geometry" />
        </mxCell>
        <mxCell id="sxUePtw3KaBQHePTFVJE-12" value="-" style="shape=hexagon;perimeter=hexagonPerimeter2;whiteSpace=wrap;html=1;fixedSize=1;direction=south;size=10;fillColor=#FFFFFF;" vertex="1" parent="sxUePtw3KaBQHePTFVJE-1">
          <mxGeometry x="160" y="119.08000000000001" width="30" height="35.46" as="geometry" />
        </mxCell>
        <mxCell id="sxUePtw3KaBQHePTFVJE-13" value="0" style="shape=hexagon;perimeter=hexagonPerimeter2;whiteSpace=wrap;html=1;fixedSize=1;direction=south;size=10;fillColor=#FFFFFF;" vertex="1" parent="sxUePtw3KaBQHePTFVJE-1">
          <mxGeometry x="340" y="154.54" width="30" height="35.46" as="geometry" />
        </mxCell>
        <mxCell id="sxUePtw3KaBQHePTFVJE-14" value="+" style="shape=hexagon;perimeter=hexagonPerimeter2;whiteSpace=wrap;html=1;fixedSize=1;direction=south;size=10;fillColor=#FFFFFF;" vertex="1" parent="sxUePtw3KaBQHePTFVJE-1">
          <mxGeometry x="320" y="120" width="30" height="35.46" as="geometry" />
        </mxCell>
        <mxCell id="sxUePtw3KaBQHePTFVJE-15" value="0" style="shape=hexagon;perimeter=hexagonPerimeter2;whiteSpace=wrap;html=1;fixedSize=1;direction=south;size=10;fillColor=#FFFFFF;" vertex="1" parent="sxUePtw3KaBQHePTFVJE-1">
          <mxGeometry x="140" y="83.62" width="30" height="35.46" as="geometry" />
        </mxCell>
        <mxCell id="sxUePtw3KaBQHePTFVJE-18" value="+" style="shape=hexagon;perimeter=hexagonPerimeter2;whiteSpace=wrap;html=1;fixedSize=1;direction=south;size=10;fillColor=#FFFFFF;" vertex="1" parent="sxUePtw3KaBQHePTFVJE-1">
          <mxGeometry x="600" y="190.00000000000006" width="30" height="35.46" as="geometry" />
        </mxCell>
        <mxCell id="sxUePtw3KaBQHePTFVJE-19" value="-" style="shape=hexagon;perimeter=hexagonPerimeter2;whiteSpace=wrap;html=1;fixedSize=1;direction=south;size=10;fillColor=#FFFFFF;" vertex="1" parent="sxUePtw3KaBQHePTFVJE-1">
          <mxGeometry x="440" y="50.000000000000014" width="30" height="35.46" as="geometry" />
        </mxCell>
        <mxCell id="gOm6XdetQS-gmtKeAny0-0" value="" style="shape=hexagon;perimeter=hexagonPerimeter2;whiteSpace=wrap;html=1;fixedSize=1;direction=south;size=10;fillColor=#000000;" vertex="1" parent="sxUePtw3KaBQHePTFVJE-1">
          <mxGeometry x="340" y="85.45999999999998" width="30" height="35.46" as="geometry" />
        </mxCell>
        <mxCell id="gOm6XdetQS-gmtKeAny0-1" value="" style="shape=hexagon;perimeter=hexagonPerimeter2;whiteSpace=wrap;html=1;fixedSize=1;direction=south;size=10;fillColor=#000000;" vertex="1" parent="sxUePtw3KaBQHePTFVJE-1">
          <mxGeometry x="140" y="154.54" width="30" height="35.46" as="geometry" />
        </mxCell>
        <mxCell id="gOm6XdetQS-gmtKeAny0-3" value="" style="shape=hexagon;perimeter=hexagonPerimeter2;whiteSpace=wrap;html=1;fixedSize=1;direction=south;size=10;fillColor=#000000;" vertex="1" parent="sxUePtw3KaBQHePTFVJE-1">
          <mxGeometry x="580" y="155.45999999999998" width="30" height="35.46" as="geometry" />
        </mxCell>
        <mxCell id="gOm6XdetQS-gmtKeAny0-4" value="" style="shape=hexagon;perimeter=hexagonPerimeter2;whiteSpace=wrap;html=1;fixedSize=1;direction=south;size=10;fillColor=#000000;" vertex="1" parent="sxUePtw3KaBQHePTFVJE-1">
          <mxGeometry x="460" y="84.54" width="30" height="35.46" as="geometry" />
        </mxCell>
      </root>
    </mxGraphModel>
  </diagram>
</mxfile>
